<svg width="15" height="16" viewBox="0 0 15 16" fill="none" xmlns="http://www.w3.org/2000/svg">
<path d="M3.13636 9.59999C4.0401 9.59999 4.77273 8.88365 4.77273 7.99999C4.77273 7.11634 4.0401 6.39999 3.13636 6.39999C2.23262 6.39999 1.5 7.11634 1.5 7.99999C1.5 8.88365 2.23262 9.59999 3.13636 9.59999Z" stroke="#6C757D" stroke-width="1.5" stroke-linecap="round" stroke-linejoin="round"/>
<path d="M11.8639 4.80001C12.7676 4.80001 13.5003 4.08366 13.5003 3.20001C13.5003 2.31635 12.7676 1.60001 11.8639 1.60001C10.9602 1.60001 10.2275 2.31635 10.2275 3.20001C10.2275 4.08366 10.9602 4.80001 11.8639 4.80001Z" stroke="#6C757D" stroke-width="1.5" stroke-linecap="round" stroke-linejoin="round"/>
<path d="M11.8639 14.4C12.7676 14.4 13.5003 13.6837 13.5003 12.8C13.5003 11.9164 12.7676 11.2 11.8639 11.2C10.9602 11.2 10.2275 11.9164 10.2275 12.8C10.2275 13.6837 10.9602 14.4 11.8639 14.4Z" stroke="#6C757D" stroke-width="1.5" stroke-linecap="round" stroke-linejoin="round"/>
<path d="M4.5625 8.78437L10.4377 12.0157M10.4377 3.98438L4.5625 7.21571" stroke="#6C757D" stroke-width="1.5" stroke-linecap="round" stroke-linejoin="round"/>
</svg>
