<svg width="19" height="19" viewBox="0 0 19 19" fill="none" xmlns="http://www.w3.org/2000/svg">
<path opacity="0.16" d="M14.36 17.5H5V7.5C5.625 7.5 6.208 7.188 6.555 6.668L9.109 2.836C9.38303 2.42493 9.75433 2.08789 10.1899 1.85482C10.6255 1.62175 11.112 1.49987 11.606 1.5H11.819C11.9642 1.49992 12.1078 1.53148 12.2396 1.59249C12.3714 1.6535 12.4883 1.74249 12.5823 1.85326C12.6762 1.96404 12.7449 2.09396 12.7835 2.23397C12.8221 2.37398 12.8298 2.52072 12.806 2.664L12 7.5H15.56C15.856 7.49988 16.1482 7.56545 16.4158 7.69197C16.6833 7.81848 16.9195 8.0028 17.1072 8.23162C17.2948 8.46045 17.4294 8.72807 17.5011 9.0152C17.5729 9.30232 17.58 9.60179 17.522 9.892L16.322 15.892C16.2313 16.3456 15.9863 16.7537 15.6286 17.0469C15.2708 17.34 14.8225 17.5002 14.36 17.5Z" fill="#242222"/>
<path d="M12 7.5L11.014 7.336C10.9902 7.47919 10.9978 7.62585 11.0364 7.76579C11.075 7.90573 11.1436 8.03559 11.2374 8.14635C11.3312 8.25712 11.4481 8.34612 11.5797 8.40719C11.7114 8.46826 11.8548 8.49993 12 8.5V7.5ZM1 7.5V6.5C0.734784 6.5 0.48043 6.60536 0.292893 6.79289C0.105357 6.98043 0 7.23478 0 7.5H1ZM3 18.5H14.36V16.5H3V18.5ZM15.56 6.5H12V8.5H15.56V6.5ZM12.986 7.664L13.792 2.829L11.82 2.5L11.015 7.336L12.986 7.664ZM11.82 0.5H11.607V2.5H11.82V0.5ZM8.278 2.281L5.762 6.055L7.426 7.165L9.94 3.39L8.278 2.281ZM4.93 6.5H1V8.5H4.93V6.5ZM0 7.5V15.5H2V7.5H0ZM17.302 16.088L18.502 10.088L16.541 9.696L15.341 15.696L17.302 16.088ZM5.762 6.055C5.67065 6.19192 5.54692 6.30417 5.40178 6.38179C5.25665 6.45942 5.09459 6.50002 4.93 6.5V8.5C5.42387 8.49996 5.91009 8.378 6.3455 8.14494C6.78092 7.91188 7.15207 7.57493 7.426 7.164L5.762 6.055ZM13.792 2.829C13.8398 2.54254 13.8246 2.24911 13.7475 1.96911C13.6704 1.68911 13.5333 1.42926 13.3456 1.20762C13.1579 0.985976 12.9242 0.807866 12.6608 0.685666C12.3973 0.563466 12.1104 0.50011 11.82 0.5V2.5L13.792 2.829ZM15.56 8.5C15.708 8.49994 15.8541 8.53272 15.9879 8.59598C16.1217 8.65924 16.2397 8.7514 16.3336 8.86581C16.4274 8.98022 16.4947 9.11404 16.5306 9.2576C16.5664 9.40116 16.57 9.55089 16.541 9.696L18.502 10.088C18.589 9.65277 18.5783 9.20365 18.4708 8.77304C18.3632 8.34242 18.1615 7.94104 17.88 7.59782C17.5986 7.25461 17.2445 6.97811 16.8434 6.78827C16.4422 6.59843 16.0038 6.49997 15.56 6.5V8.5ZM14.36 18.5C15.0536 18.5 15.7258 18.2597 16.2622 17.82C16.7986 17.3802 17.166 16.7682 17.302 16.088L15.341 15.696C15.2957 15.9226 15.1733 16.1265 14.9947 16.2731C14.816 16.4197 14.5911 16.4999 14.36 16.5V18.5ZM11.606 0.5C10.9474 0.499847 10.2989 0.662331 9.71815 0.973025C9.13741 1.28372 8.64337 1.73301 8.278 2.281L9.942 3.391C10.1246 3.11698 10.372 2.89228 10.6623 2.73685C10.9526 2.58142 11.2767 2.50006 11.606 2.5V0.5ZM3 16.5C2.73478 16.5 2.48043 16.3946 2.29289 16.2071C2.10536 16.0196 2 15.7652 2 15.5H0C0 16.2956 0.316071 17.0587 0.87868 17.6213C1.44129 18.1839 2.20435 18.5 3 18.5V16.5Z" fill="#242222"/>
<path d="M5 7.5V17.5" stroke="#242222" stroke-width="2"/>
</svg>
