<svg width="78" height="78" viewBox="0 0 78 78" fill="none" xmlns="http://www.w3.org/2000/svg">
<path d="M9.75 37.31C9.75 24.3181 9.75 17.8221 13.7861 13.7861C17.8221 9.75 24.3181 9.75 37.31 9.75H40.69C53.6819 9.75 60.1779 9.75 64.2139 13.7861C68.25 17.8221 68.25 24.3181 68.25 37.31V40.69C68.25 53.6819 68.25 60.1779 64.2139 64.2139C60.1779 68.25 53.6819 68.25 40.69 68.25H37.31C24.3181 68.25 17.8221 68.25 13.7861 64.2139C9.75 60.1779 9.75 53.6819 9.75 40.69V37.31Z" stroke="#151646" stroke-width="3.445"/>
<path fill-rule="evenodd" clip-rule="evenodd" d="M61.3475 45.9107L60.696 45.2592L60.6497 45.2129C59.4743 44.0375 58.5261 43.0893 57.6995 42.3751C56.8492 41.6404 56.028 41.0631 55.0774 40.6994C53.096 39.9415 50.9047 39.9415 48.9234 40.6994C47.9727 41.0631 47.1515 41.6404 46.3012 42.3751C45.4747 43.0893 44.5265 44.0374 43.3511 45.2128L43.3511 45.2129L43.3047 45.2592C42.4258 46.1382 41.8395 46.7226 41.3652 47.1257C40.8929 47.5272 40.689 47.6076 40.6112 47.6286C40.0992 47.7667 39.5521 47.6614 39.1281 47.343C39.0637 47.2946 38.9043 47.1442 38.6148 46.5961C38.3241 46.0456 37.9968 45.2852 37.5072 44.1427L37.3336 43.7377L37.2979 43.6544L37.2979 43.6544C36.2148 41.1271 35.3536 39.1176 34.5298 37.6045C33.6944 36.0699 32.7853 34.8251 31.4983 34.0188C29.6803 32.8801 27.5028 32.4607 25.392 32.8429C23.8976 33.1134 22.5912 33.9316 21.2456 35.0461C19.9674 36.1049 18.4858 37.5785 16.6406 39.4234V40.6896C16.6406 41.9743 16.6412 43.1719 16.6451 44.2909L18.8005 42.1354C20.8232 40.1127 22.2558 38.6827 23.4431 37.6992C24.6263 36.7192 25.3795 36.3461 26.0057 36.2328C27.2722 36.0035 28.5787 36.2551 29.6695 36.9383C30.2088 37.2762 30.7696 37.9023 31.5041 39.2516C32.2413 40.6058 33.0403 42.4655 34.1671 45.0948L34.3407 45.4998L34.3688 45.5653L34.3688 45.5654C34.823 46.6252 35.2046 47.5157 35.5684 48.2047C35.941 48.9102 36.3884 49.5938 37.0595 50.0977C38.3316 51.053 39.9729 51.3691 41.5088 50.9546C42.319 50.7359 42.9883 50.2674 43.5962 49.7507C44.1899 49.2461 44.875 48.561 45.6903 47.7456L45.7407 47.6952C46.9733 46.4626 47.8333 45.6042 48.5536 44.9818C49.2609 44.3706 49.733 44.0782 50.1542 43.9171C51.343 43.4623 52.6578 43.4623 53.8466 43.9171C54.2677 44.0782 54.7398 44.3706 55.4472 44.9818C56.1675 45.6042 57.0274 46.4626 58.26 47.6952L61.2492 50.6844C61.3058 49.2838 61.3337 47.7074 61.3475 45.9107Z" fill="#151646"/>
<circle cx="53.625" cy="24.375" r="4.875" fill="#151646"/>
</svg>
